<svg width="191" height="161" viewBox="0 0 191 161" fill="none" xmlns="http://www.w3.org/2000/svg">
<path d="M7.8 155L0.24 138.2H0.792L8.16 154.616H7.92L15.288 138.2H15.84L8.28 155H7.8ZM19.2786 146.24H28.6626V146.696H19.2786V146.24ZM19.3986 154.544H30.1026V155H18.9186V138.2H29.7426V138.656H19.3986V154.544ZM35.3098 146.24H44.6938V146.696H35.3098V146.24ZM35.4298 154.544H46.1338V155H34.9498V138.2H45.7738V138.656H35.4298V154.544ZM54.1251 155V138.656H47.8851V138.2H60.8451V138.656H54.6051V155H54.1251ZM70.7351 155.072C69.5031 155.072 68.3591 154.864 67.3031 154.448C66.2631 154.016 65.3511 153.416 64.5671 152.648C63.7991 151.88 63.1991 150.984 62.7671 149.96C62.3351 148.936 62.1191 147.816 62.1191 146.6C62.1191 145.384 62.3351 144.264 62.7671 143.24C63.1991 142.216 63.7991 141.32 64.5671 140.552C65.3511 139.784 66.2631 139.192 67.3031 138.776C68.3591 138.344 69.5031 138.128 70.7351 138.128C71.9671 138.128 73.1031 138.344 74.1431 138.776C75.1991 139.192 76.1111 139.784 76.8791 140.552C77.6631 141.32 78.2711 142.216 78.7031 143.24C79.1351 144.264 79.3511 145.384 79.3511 146.6C79.3511 147.816 79.1351 148.936 78.7031 149.96C78.2711 150.984 77.6631 151.88 76.8791 152.648C76.1111 153.416 75.1991 154.016 74.1431 154.448C73.1031 154.864 71.9671 155.072 70.7351 155.072ZM70.7351 154.616C71.8871 154.616 72.9591 154.416 73.9511 154.016C74.9431 153.616 75.8071 153.056 76.5431 152.336C77.2791 151.6 77.8471 150.752 78.2471 149.792C78.6631 148.816 78.8711 147.752 78.8711 146.6C78.8711 145.448 78.6631 144.392 78.2471 143.432C77.8471 142.456 77.2791 141.608 76.5431 140.888C75.8071 140.152 74.9431 139.584 73.9511 139.184C72.9591 138.784 71.8871 138.584 70.7351 138.584C69.5831 138.584 68.5111 138.784 67.5191 139.184C66.5271 139.584 65.6631 140.152 64.9271 140.888C64.1911 141.608 63.6151 142.456 63.1991 143.432C62.7991 144.392 62.5991 145.448 62.5991 146.6C62.5991 147.752 62.7991 148.816 63.1991 149.792C63.6151 150.752 64.1911 151.6 64.9271 152.336C65.6631 153.056 66.5271 153.616 67.5191 154.016C68.5111 154.416 69.5831 154.616 70.7351 154.616ZM83.9576 155V138.2H84.3656L96.9416 154.448H96.6776V138.2H97.1576V155H96.7496L84.1736 138.752H84.4376V155H83.9576ZM101.847 141.656L102.591 138.104V138.368C102.399 138.368 102.239 138.304 102.111 138.176C101.983 138.048 101.919 137.904 101.919 137.744C101.919 137.568 101.975 137.424 102.087 137.312C102.215 137.184 102.367 137.12 102.543 137.12C102.735 137.12 102.887 137.192 102.999 137.336C103.111 137.464 103.167 137.6 103.167 137.744C103.167 137.824 103.159 137.904 103.143 137.984C103.143 138.064 103.135 138.136 103.119 138.2C103.103 138.264 103.087 138.344 103.071 138.44L102.279 141.656H101.847ZM112.249 155.072C111.033 155.072 109.881 154.848 108.793 154.4C107.721 153.952 106.905 153.384 106.345 152.696L106.681 152.384C107.209 153.008 107.969 153.536 108.961 153.968C109.969 154.4 111.057 154.616 112.225 154.616C113.441 154.616 114.433 154.448 115.201 154.112C115.985 153.776 116.561 153.328 116.929 152.768C117.313 152.192 117.505 151.56 117.505 150.872C117.505 150.072 117.313 149.432 116.929 148.952C116.545 148.456 116.033 148.072 115.393 147.8C114.753 147.512 114.057 147.28 113.305 147.104C112.553 146.912 111.793 146.72 111.025 146.528C110.273 146.336 109.577 146.088 108.937 145.784C108.297 145.464 107.785 145.032 107.401 144.488C107.017 143.944 106.825 143.232 106.825 142.352C106.825 141.616 107.017 140.928 107.401 140.288C107.801 139.648 108.409 139.128 109.225 138.728C110.057 138.328 111.129 138.128 112.441 138.128C113.337 138.128 114.217 138.272 115.081 138.56C115.961 138.832 116.705 139.2 117.313 139.664L117.049 140.048C116.377 139.552 115.633 139.184 114.817 138.944C114.001 138.704 113.217 138.584 112.465 138.584C111.297 138.584 110.329 138.76 109.561 139.112C108.793 139.448 108.225 139.904 107.857 140.48C107.489 141.04 107.305 141.672 107.305 142.376C107.305 143.192 107.497 143.848 107.881 144.344C108.265 144.824 108.777 145.208 109.417 145.496C110.057 145.768 110.753 146 111.505 146.192C112.273 146.368 113.033 146.56 113.785 146.768C114.537 146.96 115.233 147.216 115.873 147.536C116.513 147.84 117.025 148.256 117.409 148.784C117.793 149.312 117.985 150.008 117.985 150.872C117.985 151.608 117.785 152.296 117.385 152.936C116.985 153.576 116.361 154.096 115.513 154.496C114.665 154.88 113.577 155.072 112.249 155.072ZM135.399 155.072C134.167 155.072 133.023 154.864 131.967 154.448C130.927 154.016 130.015 153.416 129.231 152.648C128.463 151.88 127.863 150.984 127.431 149.96C126.999 148.936 126.783 147.816 126.783 146.6C126.783 145.384 126.999 144.264 127.431 143.24C127.863 142.216 128.463 141.32 129.231 140.552C130.015 139.784 130.927 139.192 131.967 138.776C133.023 138.344 134.167 138.128 135.399 138.128C136.503 138.128 137.551 138.304 138.543 138.656C139.535 139.008 140.391 139.544 141.111 140.264L140.823 140.6C140.055 139.864 139.215 139.344 138.303 139.04C137.391 138.736 136.423 138.584 135.399 138.584C134.247 138.584 133.175 138.792 132.183 139.208C131.191 139.608 130.327 140.176 129.591 140.912C128.855 141.632 128.279 142.48 127.863 143.456C127.463 144.416 127.263 145.464 127.263 146.6C127.263 147.736 127.463 148.792 127.863 149.768C128.279 150.728 128.855 151.576 129.591 152.312C130.327 153.032 131.191 153.6 132.183 154.016C133.175 154.416 134.247 154.616 135.399 154.616C136.423 154.616 137.391 154.464 138.303 154.16C139.215 153.84 140.055 153.312 140.823 152.576L141.111 152.912C140.391 153.632 139.535 154.176 138.543 154.544C137.551 154.896 136.503 155.072 135.399 155.072ZM158.342 138.2H158.822V155H158.342V138.2ZM146.102 155H145.622V138.2H146.102V155ZM158.462 146.696H145.982V146.24H158.462V146.696ZM162.239 155L170.039 138.2H170.519L178.319 155H177.767L170.159 138.584H170.399L162.791 155H162.239ZM164.807 149.936L165.047 149.48H175.487L175.727 149.936H164.807ZM184.039 155V138.656H177.799V138.2H190.759V138.656H184.519V155H184.039Z" fill="white"/>
<path d="M66.6 124L26.28 34.4H29.224L68.52 121.952H67.24L106.536 34.4H109.48L69.16 124H66.6Z" fill="white"/>
<rect x="72.2286" y="94" width="21.367" height="7.51038" transform="rotate(56.0301 72.2286 94)" fill="black"/>
<path d="M111.504 124.384C104.933 124.384 98.832 123.275 93.2 121.056C87.6533 118.752 82.7893 115.552 78.608 111.456C74.512 107.36 71.312 102.581 69.008 97.12C66.704 91.6587 65.552 85.6853 65.552 79.2C65.552 72.7147 66.704 66.7413 69.008 61.28C71.312 55.8187 74.512 51.04 78.608 46.944C82.7893 42.848 87.6533 39.6907 93.2 37.472C98.832 35.168 104.933 34.016 111.504 34.016C117.392 34.016 122.981 34.9547 128.272 36.832C133.563 38.7093 138.128 41.568 141.968 45.408L140.432 47.2C136.336 43.2747 131.856 40.5013 126.992 38.88C122.128 37.2587 116.965 36.448 111.504 36.448C105.36 36.448 99.6427 37.5573 94.352 39.776C89.0613 41.9093 84.4533 44.9387 80.528 48.864C76.6027 52.704 73.5307 57.2267 71.312 62.432C69.1787 67.552 68.112 73.1413 68.112 79.2C68.112 85.2587 69.1787 90.8907 71.312 96.096C73.5307 101.216 76.6027 105.739 80.528 109.664C84.4533 113.504 89.0613 116.533 94.352 118.752C99.6427 120.885 105.36 121.952 111.504 121.952C116.965 121.952 122.128 121.141 126.992 119.52C131.856 117.813 136.336 114.997 140.432 111.072L141.968 112.864C138.128 116.704 133.563 119.605 128.272 121.568C122.981 123.445 117.392 124.384 111.504 124.384Z" fill="white"/>
</svg>
